# xmcd
#
# Track frame offsets:
#	150
#	14861
#	30801
#	47472
#	63464
#	78954
#	97786
#	111512
#	123405
#	138827
#	155439
#	171060
#	182349
#	198665
#	210792
#
# Disc length: 3028 seconds
#
# Revision: 1
# Processed by: cddbd v1.5.2PL0 Copyright (c) Steve Scherf et al.
# Submitted via: EasyCDDAExtractor 11.5.0.1
#
DISCID=b70bd20f
DTITLE=Roberto Christiano - Vol. 1
DYEAR=2008
DGENRE=Sertanejo
TTITLE0=Goiabada e Queijo
TTITLE1=Viver é te amar
TTITLE2=Selinho
TTITLE3=Pau que nasce torto
TTITLE4=Somos um
TTITLE5=Ficar por ficar
TTITLE6=Cunhado bão
TTITLE7=Puxa saco
TTITLE8=Quero que entenda
TTITLE9=Vem me namorar
TTITLE10=Balança o coração
TTITLE11=Mulher de A a Z
TTITLE12=O tempo passando
TTITLE13=Eu não consigo ficar sem essa mulher
TTITLE14=Vai mexendo
EXTD=
EXTT0=
EXTT1=
EXTT2=
EXTT3=
EXTT4=
EXTT5=
EXTT6=
EXTT7=
EXTT8=
EXTT9=
EXTT10=
EXTT11=
EXTT12=
EXTT13=
EXTT14=
PLAYORDER=
